<svg width="48" height="48" viewBox="0 0 48 48" fill="none" xmlns="http://www.w3.org/2000/svg">
<path d="M45.7202 18.2854V16.0054H43.4252V13.7104H41.1452V9.15039H38.8652V27.4354H41.1452V25.1404H43.4252V22.8604H45.7202V43.4254H48.0002V18.2854H45.7202Z" fill="white"/>
<path d="M45.7208 43.4258H43.4258V45.7208H45.7208V43.4258Z" fill="white"/>
<path d="M43.4242 45.7207H4.57422V48.0007H43.4242V45.7207Z" fill="white"/>
<path d="M38.8653 27.4355H36.5703V29.7155H38.8653V27.4355Z" fill="white"/>
<path d="M36.5691 38.8652H34.2891V41.1452H36.5691V38.8652Z" fill="white"/>
<path d="M36.5691 29.7148H34.2891V31.9948H36.5691V29.7148Z" fill="white"/>
<path d="M34.2891 36.5703H31.9941V38.8653H34.2891V36.5703Z" fill="white"/>
<path d="M34.2891 31.9941H31.9941V34.2891H34.2891V31.9941Z" fill="white"/>
<path d="M34.2891 16.0059H31.9941V22.8609H34.2891V16.0059Z" fill="white"/>
<path d="M31.9948 13.7109H29.7148V16.0059H31.9948V13.7109Z" fill="white"/>
<path d="M31.9959 34.2891H16.0059V36.5691H31.9959V34.2891Z" fill="white"/>
<path d="M31.9955 22.8594H27.4355V25.1394H31.9955V22.8594Z" fill="white"/>
<path d="M27.4351 16.0059H20.5801V18.2859H25.1401V22.8609H27.4351V16.0059Z" fill="white"/>
<path d="M25.1401 22.8594H20.5801V25.1394H25.1401V22.8594Z" fill="white"/>
<path d="M29.7152 11.4297H18.2852V13.7097H29.7152V11.4297Z" fill="white"/>
<path d="M29.7152 27.4355H18.2852V29.7155H29.7152V27.4355Z" fill="white"/>
<path d="M20.5802 18.2852H18.2852V22.8602H20.5802V18.2852Z" fill="white"/>
<path d="M18.2859 25.1406H16.0059V27.4356H18.2859V25.1406Z" fill="white"/>
<path d="M18.2859 13.7109H16.0059V16.0059H18.2859V13.7109Z" fill="white"/>
<path d="M16.0059 36.5703H13.7109V38.8653H16.0059V36.5703Z" fill="white"/>
<path d="M16.0059 31.9941H13.7109V34.2891H16.0059V31.9941Z" fill="white"/>
<path d="M16.0059 16.0059H13.7109V25.1409H16.0059V16.0059Z" fill="white"/>
<path d="M13.7097 38.8652H11.4297V41.1452H13.7097V38.8652Z" fill="white"/>
<path d="M13.7097 29.7148H11.4297V31.9948H13.7097V29.7148Z" fill="white"/>
<path d="M38.8654 9.15V6.855H34.2904V4.575H31.9954V2.28H29.7154V0H18.2854V2.28H16.0054V4.575H13.7104V6.855H9.15039V9.15H38.8654Z" fill="white"/>
<path d="M11.4304 27.4355H9.15039V29.7155H11.4304V27.4355Z" fill="white"/>
<path d="M4.5743 43.4258H2.2793V45.7208H4.5743V43.4258Z" fill="white"/>
<path d="M2.28 22.8604H4.575V25.1404H6.855V27.4354H9.15V9.15039H6.855V13.7104H4.575V16.0054H2.28V18.2854H0V43.4254H2.28V22.8604Z" fill="white"/>
</svg>
