<svg width="48" height="48" viewBox="0 0 48 48" fill="none" xmlns="http://www.w3.org/2000/svg">
<path d="M48.0007 27.4277H45.7207V29.7227H48.0007V27.4277Z" fill="white"/>
<path d="M45.7195 25.1465H41.1445V27.4265H45.7195V25.1465Z" fill="white"/>
<path d="M43.4245 20.5723H41.1445V22.8673H43.4245V20.5723Z" fill="white"/>
<path d="M34.2899 22.867V18.2921H32.0099V15.9971H29.7149V11.4371H32.0099V9.14211H41.1449V11.4371H43.4249V20.572H45.7199V6.86211H43.4249V4.56711H41.1449V2.28711H32.0099V4.56711H29.7149V6.86211H27.4349V13.7171H20.5799V6.86211H18.2849V4.56711H16.0049V2.28711H6.85492V4.56711H4.57492V6.86211H2.29492V20.572H4.57492V11.4371H6.85492V9.14211H16.0049V11.4371H18.2849V15.9971H16.0049V18.2921H13.7249V22.867H6.85492V25.147H13.7249V34.282H16.0049V22.867H18.2849V20.572H29.7149V22.867H32.0099V34.282H34.2899V25.147H41.1449V22.867H34.2899Z" fill="white"/>
<path d="M38.8653 43.4316H36.5703V45.7116H38.8653V43.4316Z" fill="white"/>
<path d="M36.5691 41.1523H34.2891V43.4323H36.5691V41.1523Z" fill="white"/>
<path d="M34.2898 38.8574H29.7148V41.1524H34.2898V38.8574Z" fill="white"/>
<path d="M32.0098 34.2812H29.7148V36.5763H32.0098V34.2812Z" fill="white"/>
<path d="M29.7155 25.1465H27.4355V29.7215H29.7155V25.1465Z" fill="white"/>
<path d="M29.7152 36.5762H18.2852V38.8562H29.7152V36.5762Z" fill="white"/>
<path d="M27.4351 32.002H20.5801V34.282H27.4351V32.002Z" fill="white"/>
<path d="M20.5802 25.1465H18.2852V29.7215H20.5802V25.1465Z" fill="white"/>
<path d="M18.2859 34.2812H16.0059V36.5763H18.2859V34.2812Z" fill="white"/>
<path d="M18.2846 38.8574H13.7246V41.1524H18.2846V38.8574Z" fill="white"/>
<path d="M13.7247 41.1523H11.4297V43.4323H13.7247V41.1523Z" fill="white"/>
<path d="M11.4304 43.4316H9.15039V45.7116H11.4304V43.4316Z" fill="white"/>
<path d="M6.85422 20.5723H4.57422V22.8673H6.85422V20.5723Z" fill="white"/>
<path d="M6.85492 25.1465H2.29492V27.4265H6.85492V25.1465Z" fill="white"/>
<path d="M2.295 27.4277H0V29.7227H2.295V27.4277Z" fill="white"/>
</svg>
