<svg width="48" height="48" viewBox="0 0 48 48" fill="none" xmlns="http://www.w3.org/2000/svg">
<path d="M36.5613 13.7246V16.0046H34.2813V18.2846H36.5613V41.1446H31.9863V43.4246H36.5613V45.7196H45.7113V13.7246H36.5613ZM41.1363 22.8596H38.8563V18.2846H41.1363V22.8596Z" fill="white"/>
<path d="M34.2813 13.7246H31.9863V16.0046H34.2813V13.7246Z" fill="#F9F7F0"/>
<path d="M31.987 11.4297H29.707V13.7247H31.987V11.4297Z" fill="#F9F7F0"/>
<path d="M31.987 43.4258H29.707V45.7208H31.987V43.4258Z" fill="#F9F7F0"/>
<path d="M29.7077 2.29492H27.4277V11.4299H29.7077V2.29492Z" fill="#F9F7F0"/>
<path d="M27.4266 0H22.8516V2.295H27.4266V0Z" fill="#F9F7F0"/>
<path d="M29.7076 45.7207H9.14258V48.0007H29.7076V45.7207Z" fill="#F9F7F0"/>
<path d="M25.1316 16.0059H22.8516V18.2859H25.1316V16.0059Z" fill="#F9F7F0"/>
<path d="M22.8523 2.29492H20.5723V4.57492H22.8523V2.29492Z" fill="#F9F7F0"/>
<path d="M22.8523 13.7246H20.5723V16.0046H22.8523V13.7246Z" fill="#F9F7F0"/>
<path d="M20.5723 4.57422H18.2773V13.7242H20.5723V4.57422Z" fill="#F9F7F0"/>
<path d="M22.8527 18.2852H6.84766V20.5802H22.8527V18.2852Z" fill="#F9F7F0"/>
<path d="M15.9964 41.1452V38.8652H4.56641V43.4252H6.84641V41.1452H15.9964Z" fill="#F9F7F0"/>
<path d="M9.14266 43.4258H6.84766V45.7208H9.14266V43.4258Z" fill="#F9F7F0"/>
<path d="M6.84641 20.5801H4.56641V22.8601H6.84641V20.5801Z" fill="#F9F7F0"/>
<path d="M13.7021 34.2894V32.0094H4.56711V27.4344H13.7021V25.1394H4.56711V22.8594H2.28711V38.8644H4.56711V34.2894H13.7021Z" fill="#F9F7F0"/>
</svg>
