<svg width="33" height="44" viewBox="0 0 33 44" fill="none" xmlns="http://www.w3.org/2000/svg">
<path d="M30.9091 0H29.0984H27.2736H25.4629H23.6381H21.8279H20.003H18.1923H16.3665H14.5464H12.731H10.9061H9.09545H7.27107H5.46039H3.63553H1.82486H0V1.81068V3.63553V5.44621V7.27107H1.82486H3.63553V9.08174V10.9066V12.7173V14.5421H5.46039V16.3528V18.1777H7.27107V19.9883H9.09545V21.8132V23.6376H7.27107V25.4483H5.46039V27.2731V29.0838H3.63553V30.9086V32.7193V34.5437V36.3544H1.82486H0V38.1788V39.9894V41.8148V43.625H1.82486H3.63553H5.46039H7.27107H9.09545H10.9061H12.731H14.5464H16.3665H18.1914H20.0021H21.8269H23.6371H25.462H27.2726H29.0975H30.9082H32.7326V41.8148V39.9894V38.1788V36.3553H30.9082H29.0975V34.5447V32.7198V30.9091V29.0843H27.2726V27.2736V25.4487H25.462V23.6381H23.6371V21.8132V19.9883H25.462V18.1777H27.2726V16.3528V14.5421H29.0975V12.7173V10.9066V9.08174V7.27107H30.9082H32.7326V5.44621V3.63553V1.81068V0H30.9091ZM30.9091 38.1797V39.9904V41.8157H29.0984H27.2736H25.4629H23.6381H21.8279H20.003H18.1923H16.3665H14.5464H12.731H10.9061H9.09545H7.27107H5.46039H3.63553H1.82486V39.9904V38.1797H3.63553H5.46039H7.27107H9.09545H10.9061H12.731H14.5464H16.3665H18.1914H20.0021H21.8269H23.6371H25.462H27.2726H29.0975H30.9091ZM10.9061 34.5447V32.7198H12.731V30.9091H14.5464V29.0843H16.3665H18.1914V30.9091H20.0021V32.7198H21.8269V34.5442V36.3549H20.0021H18.1914H16.3665H14.5464H12.731H10.9061V34.5447ZM27.2731 9.08174V10.9066V12.7173H25.4624V14.5421V16.3528H23.6376V18.1777H21.8274V19.9883H20.0025V21.8132V23.6376H21.8274V25.4483H23.6376V27.2731H25.4624V29.0838V30.9086H27.2731V32.7193V34.5437V36.3544H25.4624H23.6376V34.5437V32.7198V30.9091H21.8274V29.0843H20.0025V27.2736H18.1918V25.4487H16.3665H14.5464V27.2736H12.731V29.0843H10.9061V30.9091H9.09545V32.7198V34.5442V36.3549H7.27107H5.46039V34.5442V32.7198V30.9091H7.27107V29.0843V27.2736H9.09545V25.4487H10.9061V23.6381H12.731V21.8132V19.9883H10.9061V18.1777H9.09545V16.3528H7.27107V14.5421V12.7173H5.46039V10.9066V9.08174V7.27107H7.27107H9.09545H10.9061H12.731H14.5464H16.3665H18.1914H20.0021H21.8269H23.6371H25.462H27.2726V9.08174H27.2731ZM30.9091 3.63553V5.44621H29.0984H27.2736H25.4629H23.6381H21.8279H20.003H18.1923H16.3665H14.5464H12.731H10.9061H9.09545H7.27107H5.46039H3.63553H1.82486V3.63553V1.81068H3.63553H5.46039H7.27107H9.09545H10.9061H12.731H14.5464H16.3665H18.1914H20.0021H21.8269H23.6371H25.462H27.2726H29.0975H30.9082V3.63553H30.9091Z" fill="black"/>
<path d="M18.1915 10.9067H16.3666H14.5465H12.7311H10.9062V12.7174V14.5423H12.7311V16.3529H14.5465V18.1778H16.3666H18.1915V16.3529H20.0022V14.5423H21.827V12.7174V10.9067H20.0022H18.1915ZM16.3666 14.5423H14.5465V12.7174H16.3666H18.1915V14.5423H16.3666Z" fill="black"/>
</svg>
