<svg width="48" height="48" viewBox="0 0 48 48" fill="none" xmlns="http://www.w3.org/2000/svg">
<path d="M48.0008 13.7109H43.4258V16.0059H48.0008V13.7109Z" fill="white"/>
<path d="M48.0008 31.9941H43.4258V34.2891H48.0008V31.9941Z" fill="white"/>
<path d="M48.0008 22.8594H43.4258V25.1394H48.0008V22.8594Z" fill="white"/>
<path d="M43.4245 41.1445H41.1445V43.4245H43.4245V41.1445Z" fill="white"/>
<path d="M43.4245 4.57422H41.1445V6.85422H43.4245V4.57422Z" fill="white"/>
<path d="M41.1452 38.8496H38.8652V41.1446H41.1452V38.8496Z" fill="white"/>
<path d="M41.1452 18.2852H38.8652V29.7152H41.1452V18.2852Z" fill="white"/>
<path d="M41.1452 6.85547H38.8652V9.13547H41.1452V6.85547Z" fill="white"/>
<path d="M38.8653 29.7148H36.5703V34.2898H38.8653V29.7148Z" fill="white"/>
<path d="M38.8653 13.7109H36.5703V18.2859H38.8653V13.7109Z" fill="white"/>
<path d="M36.5691 11.4297H34.2891V13.7097H36.5691V11.4297Z" fill="white"/>
<path d="M34.2898 43.4258H32.0098V48.0008H34.2898V43.4258Z" fill="white"/>
<path d="M32.0098 36.5691H29.7148V38.8491H34.2898V36.5691H36.5698V34.2891H32.0098V36.5691Z" fill="white"/>
<path d="M34.2898 0H32.0098V4.575H34.2898V0Z" fill="white"/>
<path d="M32.0098 31.9941H29.7148V34.2891H32.0098V31.9941Z" fill="white"/>
<path d="M34.2898 9.13477H29.7148V11.4298H34.2898V9.13477Z" fill="white"/>
<path d="M29.7152 38.8496H18.2852V41.1446H29.7152V38.8496Z" fill="white"/>
<path d="M25.1394 43.4258H22.8594V48.0008H25.1394V43.4258Z" fill="white"/>
<path d="M25.1394 0H22.8594V4.575H25.1394V0Z" fill="white"/>
<path d="M29.7152 29.7148H18.2852V31.9948H29.7152V29.7148Z" fill="white"/>
<path d="M29.7152 6.85547H18.2852V9.13547H29.7152V6.85547Z" fill="white"/>
<path d="M16.0047 36.5691V34.2891H11.4297V36.5691H13.7247V38.8491H18.2847V36.5691H16.0047Z" fill="white"/>
<path d="M18.2859 31.9941H16.0059V34.2891H18.2859V31.9941Z" fill="white"/>
<path d="M18.2859 20.5659H20.5809V18.2859H27.4359V20.5659H29.7159V29.7159H32.0109V16.0059H29.7159V13.7109H18.2859V16.0059H16.0059V29.7159H18.2859V20.5659Z" fill="white"/>
<path d="M18.2846 9.13477H13.7246V11.4298H18.2846V9.13477Z" fill="white"/>
<path d="M16.0046 43.4258H13.7246V48.0008H16.0046V43.4258Z" fill="white"/>
<path d="M16.0046 0H13.7246V4.575H16.0046V0Z" fill="white"/>
<path d="M13.7247 11.4297H11.4297V13.7097H13.7247V11.4297Z" fill="white"/>
<path d="M11.4304 29.7148H9.15039V34.2898H11.4304V29.7148Z" fill="white"/>
<path d="M11.4304 13.7109H9.15039V18.2859H11.4304V13.7109Z" fill="white"/>
<path d="M9.15047 38.8496H6.85547V41.1446H9.15047V38.8496Z" fill="white"/>
<path d="M9.15047 18.2852H6.85547V29.7152H9.15047V18.2852Z" fill="white"/>
<path d="M9.15047 6.85547H6.85547V9.13547H9.15047V6.85547Z" fill="white"/>
<path d="M6.85422 41.1445H4.57422V43.4245H6.85422V41.1445Z" fill="white"/>
<path d="M6.85422 4.57422H4.57422V6.85422H6.85422V4.57422Z" fill="white"/>
<path d="M4.575 31.9941H0V34.2891H4.575V31.9941Z" fill="white"/>
<path d="M4.575 22.8594H0V25.1394H4.575V22.8594Z" fill="white"/>
<path d="M4.575 13.7109H0V16.0059H4.575V13.7109Z" fill="white"/>
</svg>
