<svg width="48" height="48" viewBox="0 0 48 48" fill="none" xmlns="http://www.w3.org/2000/svg">
<path d="M44.5723 11.4297H42.2773V29.7147H44.5723V11.4297Z" fill="white"/>
<path d="M42.278 29.7148H39.998V36.5698H42.278V29.7148Z" fill="white"/>
<path d="M37.7175 41.1453H17.1375V36.5703H14.85V41.1453H12.5625V48.0003H42.2775V41.1453H39.9975V36.5703H37.7175V41.1453ZM37.7175 45.7203H33.15V43.4253H37.725L37.7175 45.7203Z" fill="white"/>
<path d="M35.4219 20.5655H37.7169V11.4305H42.2769V9.15047H37.7169V6.85547H35.4219V20.5655Z" fill="white"/>
<path d="M28.5684 20.5643H30.8484V6.8543H35.4234V4.5743H30.8484V2.2793H28.5684V20.5643Z" fill="white"/>
<path d="M28.5671 27.4355H26.2871V31.9955H28.5671V27.4355Z" fill="white"/>
<path d="M28.5672 0H23.9922V2.28H28.5672V0Z" fill="white"/>
<path d="M26.2872 25.1406H23.9922V27.4356H26.2872V25.1406Z" fill="white"/>
<path d="M21.7137 20.5643H23.9937V2.2793H17.1387V4.5743H21.7137V20.5643Z" fill="white"/>
<path d="M23.9937 22.8594H17.1387V25.1394H23.9937V22.8594Z" fill="white"/>
<path d="M14.8575 31.9941H12.5625V36.5691H14.8575V31.9941Z" fill="white"/>
<path d="M17.1375 22.8592V4.57422H14.8575V20.5642H12.5625V22.8592H17.1375Z" fill="white"/>
<path d="M12.5632 29.7148H10.2832V31.9948H12.5632V29.7148Z" fill="white"/>
<path d="M12.5632 18.2852H10.2832V20.5652H12.5632V18.2852Z" fill="white"/>
<path d="M10.282 27.4355H8.00195V29.7155H10.282V27.4355Z" fill="white"/>
<path d="M10.282 16.0059H5.70703V18.2859H10.282V16.0059Z" fill="white"/>
<path d="M8.00203 25.1406H5.70703V27.4356H8.00203V25.1406Z" fill="white"/>
<path d="M5.70773 18.2852H3.42773V25.1402H5.70773V18.2852Z" fill="white"/>
</svg>
