<svg width="41" height="41" viewBox="0 0 41 41" fill="none" xmlns="http://www.w3.org/2000/svg">
<g clip-path="url(#clip0_396_116)">
<path d="M38.3461 10.4137H2.15859V4.70117H0.246094V37.0762H2.15859V12.3137H38.3461V37.0762H40.2461V4.70117H38.3461V10.4137Z" fill="white"/>
<path d="M38.3457 37.0762H2.1582V38.9762H38.3457V37.0762Z" fill="white"/>
<path d="M34.5328 25.6523H32.6328V31.3648H34.5328V25.6523Z" fill="white"/>
<path d="M32.6332 31.3633H30.7207V33.2633H32.6332V31.3633Z" fill="white"/>
<path d="M32.6332 23.7383H30.7207V25.6508H32.6332V23.7383Z" fill="white"/>
<path d="M30.7203 33.2637H25.0078V35.1762H30.7203V33.2637Z" fill="white"/>
<path d="M30.7215 23.7391V21.8391H28.8215V14.2266H5.95898V25.6516H9.77148V23.7391H7.87148V16.1266H26.9215V21.8391H25.009V23.7391H30.7215Z" fill="white"/>
<path d="M25.0094 31.3633H23.1094V33.2633H25.0094V31.3633Z" fill="white"/>
<path d="M25.0094 23.7383H23.1094V25.6508H25.0094V23.7383Z" fill="white"/>
<path d="M23.1078 25.6523H21.1953V31.3648H23.1078V25.6523Z" fill="white"/>
<path d="M13.5844 6.60156H11.6719V8.50156H13.5844V6.60156Z" fill="white"/>
<path d="M7.87148 27.5523V29.4648H5.95898V31.3648H19.2965V25.6523H17.3965V23.7398H15.484V21.8398H13.584V23.7398H11.6715V25.6523H9.77148V27.5523H7.87148Z" fill="white"/>
<path d="M9.77109 6.60156H7.87109V8.50156H9.77109V6.60156Z" fill="white"/>
<path d="M5.95859 6.60156H4.05859V8.50156H5.95859V6.60156Z" fill="white"/>
<path d="M38.3457 2.78906H2.1582V4.70156H38.3457V2.78906Z" fill="white"/>
</g>
<defs>
<clipPath id="clip0_396_116">
<rect width="40" height="40" fill="white" transform="translate(0.246094 0.882812)"/>
</clipPath>
</defs>
</svg>
